Coordinates
version=1
nRows=12
nColumns=24
inDegrees=yes

Units are S.I. units (second, meters, Newtons, ...)
Angles are in degrees.

endheader
time	pelvis_tilt	pelvis_list	pelvis_rotation	pelvis_tx	pelvis_ty	pelvis_tz	hip_flexion_r	hip_adduction_r	hip_rotation_r	knee_angle_r	ankle_angle_r	subtalar_angle_r	mtp_angle_r	hip_flexion_l	hip_adduction_l	hip_rotation_l	knee_angle_l	ankle_angle_l	subtalar_angle_l	mtp_angle_l	lumbar_extension	lumbar_bending	lumbar_rotation
      2.55500000	      6.40624225	     10.89407556	     -8.23197830	      0.53351530	      0.98343071	      0.03063163	     -5.91269676	    -14.67994452	     -4.37820642	    -38.31106482	      2.60313498	      0.11886477	     31.60108162	     12.74554078	     12.39696180	    -13.26853473	    -10.96931726	     -6.03705602	     -2.73559603	     40.37596651	    -22.81264002	    -13.20021592	      5.64649513
      2.56000000	      6.25227941	     11.08141177	     -8.26135638	      0.53840619	      0.98349049	      0.03012317	     -4.80839634	    -14.95758175	     -3.75439865	    -40.05491143	      1.49878889	     -0.10456455	     32.29408228	     12.91023544	     12.60245888	    -13.17779751	    -11.44479458	     -5.66804140	     -2.88286887	     39.17160433	    -22.66187353	    -13.42757992	      5.57230397
      2.56500000	      6.13356758	     11.25718222	     -8.30941101	      0.54331279	      0.98358476	      0.02957787	     -3.72010109	    -15.22359905	     -3.12511384	    -41.77847159	      0.40973901	     -0.27657567	     32.73972708	     12.99989648	     12.81315522	    -13.05921390	    -11.84933426	     -5.29647987	     -3.04805027	     38.01114176	    -22.53492388	    -13.64576054	      5.62818951
      2.57000000	      6.14568795	     11.42758474	     -8.34059627	      0.54826304	      0.98385506	      0.02908690	     -2.80246623	    -15.47457943	     -2.53951642	    -43.41898691	     -0.66653221	     -0.49205497	     33.22038029	     12.90788125	     13.04546839	    -12.98919249	    -12.20380021	     -4.80761395	     -3.01974537	     35.88812720	    -22.56185999	    -13.86173715	      5.54005659
      2.57500000	      6.04253501	     11.61952050	     -8.41045464	      0.55312222	      0.98390575	      0.02860275	     -1.68187642	    -15.72503035	     -1.86742235	    -45.10890779	     -1.54977452	     -0.53002974	     33.12514768	     12.93165513	     13.27764664	    -12.99026630	    -12.48869747	     -4.54254785	     -3.22876864	     35.44737076	    -22.44512249	    -14.10122388	      5.54971865
      2.58000000	      5.94927026	     11.82095169	     -8.40386417	      0.55799140	      0.98396883	      0.02806541	     -0.60521562	    -15.96455383	     -1.29377179	    -46.73947438	     -2.31955396	     -0.59059686	     32.61018864	     12.91285718	     13.53446419	    -12.92848557	    -12.75171369	     -4.09254141	     -3.09079706	     33.41917700	    -22.35603532	    -14.32786568	      5.45451344
      2.58500000	      5.90549184	     12.01541506	     -8.47925725	      0.56285397	      0.98406971	      0.02759973	      0.44798490	    -16.19400140	     -0.64143648	    -48.31741536	     -2.98336489	     -0.55674778	     32.37910689	     12.80197269	     13.79062993	    -12.97330201	    -12.89952224	     -3.85818686	     -3.22010477	     33.03043198	    -22.29739297	    -14.56967054	      5.45567822
      2.59000000	      5.77907124	     12.20625918	     -8.51754510	      0.56764291	      0.98404958	      0.02710385	      1.59580278	    -16.38384512	     -0.00496549	    -49.86478379	     -3.50004493	     -0.52662921	     31.89041131	     12.76722579	     14.03411706	    -12.99021342	    -13.03071347	     -3.58800291	     -3.25515639	     32.25519015	    -22.15780270	    -14.79005671	      5.43959871
      2.59500000	      5.69163683	     12.39030705	     -8.55523551	      0.57245013	      0.98409408	      0.02659802	      2.68016473	    -16.56013153	      0.60157709	    -51.33106525	     -3.83838920	     -0.45452904	     31.15592371	     12.65243541	     14.28711917	    -13.00447002	    -13.09607920	     -3.30898333	     -3.24785198	     31.23079771	    -22.05607664	    -14.99864383	      5.41879869
      2.60000000	      5.71961380	     12.54796524	     -8.50518453	      0.57738138	      0.98437314	      0.02605631	      3.53481246	    -16.71367925	      1.04302742	    -52.66315772	     -3.92008636	     -0.39252096	     29.37588852	     12.34072067	     14.55758805	    -12.89630997	    -13.09015774	     -2.88841887	     -3.01121492	     29.11400398	    -22.09960975	    -15.16172942	      5.25081846
      2.60500000	      5.73301436	     12.69545087	     -8.56308439	      0.58221527	      0.98459548	      0.02558451	      4.46152338	    -16.84493092	      1.60239415	    -53.94321133	     -4.00073445	     -0.29893441	     29.11991090	     12.04069525	     14.80560622	    -12.89522959	    -13.01310349	     -2.74145553	     -3.09146221	     28.85155129	    -22.10281203	    -15.33687600	      5.23732450
      2.61000000	      5.62540602	     12.84520761	     -8.52705787	      0.58697829	      0.98465659	      0.02508094	      5.49752034	    -16.93669999	      2.07982904	    -55.19031889	     -3.86700963	     -0.29333370	     28.10826307	     11.87045155	     15.04113466	    -12.81209534	    -12.96771329	     -2.48367453	     -3.02930148	     27.89975188	    -21.99667358	    -15.48315934	      5.10711504
